<svg width="70" height="61" viewBox="0 0 70 61" fill="none" xmlns="http://www.w3.org/2000/svg">
<path d="M69.8497 26.9851C69.6379 28.5676 68.0941 29.7015 67.3237 31.0367C66.6941 32.1262 66.663 32.3897 65.8348 33.3963C65.4244 33.8966 64.6659 35.0557 64.2644 35.4243C63.8155 35.8373 62.571 36.2607 61.9932 36.6307C60.3102 37.7084 59.6213 39.615 58.1176 40.8229C56.7368 41.9332 54.9901 42.2337 53.7723 43.6769C53.2197 44.3312 52.8834 45.2076 52.3426 45.8471C51.9455 46.3163 51.4655 46.4969 51.144 46.8211C50.7159 47.2533 50.2033 48.3251 49.6922 48.8447C49.2121 49.3302 48.504 49.647 48.0669 50.2613C47.7321 50.7306 47.5454 51.4115 47.2299 51.9059C46.5276 53.0013 45.7898 53.8407 45.1987 55.0885C44.8194 55.8909 44.4728 57.3401 44.0772 57.9366C43.9557 58.1217 42.0949 59.5102 41.8253 59.6567C40.9986 60.1097 38.1393 60.2651 37.1422 60.16C34.8088 59.9173 33.2117 58.2963 31.2843 57.2054C30.4605 57.2216 29.6279 57.1565 28.8057 57.2009C26.5301 57.3208 25.6086 58.0728 23.247 57.2912C19.4721 56.0433 20.0884 54.1012 17.6884 51.9266C16.0898 50.4774 12.8986 49.0771 11.7964 47.3895C10.9474 46.0898 10.3978 45.135 9.11777 44.1121C7.93107 43.1618 6.05398 42.5534 4.95766 41.566C2.46426 39.3219 0.421243 35.6908 0.061234 32.3157C0.0182699 31.9116 -0.106178 29.9916 0.461244 30.0479C0.770882 30.0775 1.84498 31.1048 2.2924 31.3283C2.89983 31.6333 4.74284 32.0833 5.48804 32.2298C7.63476 32.6532 9.72223 32.2017 11.4749 33.944C12.2008 34.6649 12.0615 35.3473 12.3386 36.1807C12.8497 37.7202 13.9105 39.1591 15.6394 39.3352C16.5802 39.4315 20.004 39.0259 20.6781 38.4175C20.9833 38.1421 22.284 34.8944 22.5003 34.283C23.5418 31.3328 23.1448 29.3107 23.5404 26.3901C23.7241 25.0356 24.0352 24.9157 24.4559 23.8306C25.0397 22.3266 24.653 20.6391 24.7685 19.0581C24.8708 17.6859 25.5137 16.3122 25.6219 15.0732C25.7226 13.8978 25.4471 13.2465 25.8515 11.9527C27.0397 8.14541 28.4901 4.6297 31.0517 1.51516C32.8295 -0.647551 32.9688 2.64019 33.0888 3.92508C33.2369 5.50752 33.1288 7.44375 33.4947 8.97881C33.914 10.7433 35.1629 11.7351 35.2044 13.9763C35.2429 16.0087 34.1584 17.7821 34.0843 19.557C34.0221 21.0625 34.4695 23.052 34.3377 24.5204C34.274 25.2236 33.8962 25.7461 33.831 26.4952C33.714 27.8452 33.8636 30.9982 34.871 31.9782C35.6488 32.7331 36.4177 32.3556 37.1303 31.7739C38.6815 30.5068 40.2771 27.4559 41.1467 25.6129C41.5823 24.6907 41.892 23.1467 42.6638 22.5383C43.0594 22.2275 43.6801 22.0676 44.0239 21.6635C44.6905 20.8819 45.372 19.0715 46.0817 18.1374C46.4358 17.6726 47.8669 16.2352 48.3677 16.0783C48.7766 15.9495 49.2877 15.9628 49.7322 15.8281C51.4966 15.2952 52.0507 14.0636 53.3367 12.9771C54.0345 12.3894 57.2538 10.3688 58.0272 10.2193C58.2228 10.1808 58.5383 10.1053 58.6939 10.2607C59.1443 10.8869 58.2198 13.923 57.9679 14.749C57.4331 16.4928 56.5101 18.1581 56.2094 19.9404C56.0123 21.1098 56.1471 21.8737 55.5975 23.049C54.8167 24.7158 53.5145 25.5581 52.4907 26.8934C51.6937 27.9296 51.3441 29.2426 50.5337 30.2729C49.9959 30.9553 49.1973 31.5415 48.621 32.2091C47.8136 33.1461 45.8165 35.7973 45.6432 36.9268C45.4639 38.1096 46.3098 38.7283 47.4284 38.5818C50.544 38.1747 51.7989 36.0608 53.7056 34.0595C54.3515 33.3815 55.2567 32.7805 55.8864 32.0211C57.0686 30.5941 57.2494 29.5224 58.9383 28.2463C60.1947 27.2975 60.2702 27.4322 61.7088 27.1672C64.2688 26.6935 66.6437 26.0333 69.0645 25.0726C70.0453 24.9764 69.9371 26.3264 69.8497 26.9851Z" fill="black"/>
</svg>
